<svg width="115" height="34" viewBox="0 0 115 34" fill="none" xmlns="http://www.w3.org/2000/svg">
<path d="M49.304 25.112C48.248 25.112 47.2773 24.8667 46.392 24.376C45.5173 23.8853 44.8187 23.2027 44.296 22.328C43.784 21.4427 43.528 20.4507 43.528 19.352C43.528 18.2533 43.784 17.2667 44.296 16.392C44.8187 15.5173 45.5173 14.8347 46.392 14.344C47.2773 13.8533 48.248 13.608 49.304 13.608C50.36 13.608 51.3253 13.8533 52.2 14.344C53.0853 14.8347 53.7787 15.5173 54.28 16.392C54.792 17.2667 55.048 18.2533 55.048 19.352C55.048 20.4507 54.792 21.4427 54.28 22.328C53.768 23.2027 53.0747 23.8853 52.2 24.376C51.3253 24.8667 50.36 25.112 49.304 25.112ZM49.304 22.616C50.2 22.616 50.9147 22.3173 51.448 21.72C51.992 21.1227 52.264 20.3333 52.264 19.352C52.264 18.36 51.992 17.5707 51.448 16.984C50.9147 16.3867 50.2 16.088 49.304 16.088C48.3973 16.088 47.672 16.3813 47.128 16.968C46.5947 17.5547 46.328 18.3493 46.328 19.352C46.328 20.344 46.5947 21.1387 47.128 21.736C47.672 22.3227 48.3973 22.616 49.304 22.616ZM63.2901 15.976C64.3355 15.976 65.1675 16.3173 65.7861 17C66.4155 17.672 66.7301 18.6 66.7301 19.784V25H64.0101V20.152C64.0101 19.5547 63.8555 19.0907 63.5461 18.76C63.2368 18.4293 62.8208 18.264 62.2981 18.264C61.7755 18.264 61.3595 18.4293 61.0501 18.76C60.7408 19.0907 60.5861 19.5547 60.5861 20.152V25H57.8501V16.072H60.5861V17.256C60.8635 16.8613 61.2368 16.552 61.7061 16.328C62.1755 16.0933 62.7035 15.976 63.2901 15.976ZM72.6474 13.16V25H69.9114V13.16H72.6474ZM77.2861 15.144C76.8061 15.144 76.4115 15.0053 76.1021 14.728C75.8035 14.44 75.6541 14.088 75.6541 13.672C75.6541 13.2453 75.8035 12.8933 76.1021 12.616C76.4115 12.328 76.8061 12.184 77.2861 12.184C77.7555 12.184 78.1395 12.328 78.4381 12.616C78.7475 12.8933 78.9021 13.2453 78.9021 13.672C78.9021 14.088 78.7475 14.44 78.4381 14.728C78.1395 15.0053 77.7555 15.144 77.2861 15.144ZM78.6461 16.072V25H75.9101V16.072H78.6461ZM81.3649 20.52C81.3649 19.6027 81.5355 18.7973 81.8769 18.104C82.2289 17.4107 82.7035 16.8773 83.3009 16.504C83.8982 16.1307 84.5649 15.944 85.3009 15.944C85.8875 15.944 86.4209 16.0667 86.9009 16.312C87.3915 16.5573 87.7755 16.888 88.0529 17.304V13.16H90.7889V25H88.0529V23.72C87.7969 24.1467 87.4289 24.488 86.9489 24.744C86.4795 25 85.9302 25.128 85.3009 25.128C84.5649 25.128 83.8982 24.9413 83.3009 24.568C82.7035 24.184 82.2289 23.6453 81.8769 22.952C81.5355 22.248 81.3649 21.4373 81.3649 20.52ZM88.0529 20.536C88.0529 19.8533 87.8609 19.3147 87.4769 18.92C87.1035 18.5253 86.6449 18.328 86.1009 18.328C85.5569 18.328 85.0929 18.5253 84.7089 18.92C84.3355 19.304 84.1489 19.8373 84.1489 20.52C84.1489 21.2027 84.3355 21.7467 84.7089 22.152C85.0929 22.5467 85.5569 22.744 86.1009 22.744C86.6449 22.744 87.1035 22.5467 87.4769 22.152C87.8609 21.7573 88.0529 21.2187 88.0529 20.536ZM102.464 20.392C102.464 20.648 102.448 20.9147 102.416 21.192H96.2243C96.2669 21.7467 96.4429 22.1733 96.7523 22.472C97.0723 22.76 97.4616 22.904 97.9203 22.904C98.6029 22.904 99.0776 22.616 99.3443 22.04H102.256C102.107 22.6267 101.835 23.1547 101.44 23.624C101.056 24.0933 100.571 24.4613 99.9843 24.728C99.3976 24.9947 98.7416 25.128 98.0163 25.128C97.1416 25.128 96.3629 24.9413 95.6803 24.568C94.9976 24.1947 94.4643 23.6613 94.0803 22.968C93.6963 22.2747 93.5043 21.464 93.5043 20.536C93.5043 19.608 93.6909 18.7973 94.0643 18.104C94.4483 17.4107 94.9816 16.8773 95.6643 16.504C96.3469 16.1307 97.1309 15.944 98.0163 15.944C98.8803 15.944 99.6483 16.1253 100.32 16.488C100.992 16.8507 101.515 17.368 101.888 18.04C102.272 18.712 102.464 19.496 102.464 20.392ZM99.6643 19.672C99.6643 19.2027 99.5043 18.8293 99.1843 18.552C98.8643 18.2747 98.4643 18.136 97.9843 18.136C97.5256 18.136 97.1363 18.2693 96.8163 18.536C96.5069 18.8027 96.3149 19.1813 96.2403 19.672H99.6643ZM109.204 22.44L111.14 16.072H114.052L110.884 25H107.508L104.34 16.072H107.268L109.204 22.44Z" fill="white"/>
<path d="M17.033 17.183L11.273 22.013C11.117 22.145 10.88 22.034 10.88 21.83V19.949C10.88 19.88 10.913 19.811 10.967 19.766L14.261 17L10.967 14.234C10.9394 14.2122 10.9172 14.1844 10.9021 14.1527C10.8871 14.1209 10.8795 14.0861 10.88 14.051V12.17C10.88 11.966 11.117 11.855 11.273 11.987L17.033 16.814C17.15 16.91 17.15 17.087 17.033 17.183Z" fill="white"/>
<path d="M23.12 21.83C23.12 21.962 23.018 22.07 22.895 22.07H17.345C17.222 22.07 17.12 21.962 17.12 21.83V20.39C17.12 20.258 17.222 20.15 17.345 20.15H22.895C23.018 20.15 23.12 20.258 23.12 20.39V21.83Z" fill="white"/>
<path d="M18.9277 2.65483L30.6559 11.3837C31.2216 11.8045 31.6393 12.3936 31.8491 13.0665C32.0588 13.7395 32.0497 14.4615 31.8232 15.1289L26.8654 29.7365C26.6417 30.3964 26.2167 30.9696 25.6502 31.3756C25.0836 31.7816 24.4041 31.9999 23.707 32H10.1661C9.46424 32.0003 8.78016 31.7793 8.21128 31.3684C7.6424 30.9575 7.21771 30.3777 6.99767 29.7115L2.1683 15.1023C1.94957 14.4404 1.94391 13.7267 2.1521 13.0615C2.36029 12.3963 2.77187 11.813 3.32895 11.3937L14.9321 2.66484C15.509 2.23325 16.2102 2 16.9307 2C17.6513 2 18.3525 2.23325 18.9293 2.66484L18.9277 2.65483Z" stroke="white" stroke-width="4" stroke-linecap="round" stroke-linejoin="round"/>
</svg>
