<svg width="34" height="34" viewBox="0 0 34 34" fill="none" xmlns="http://www.w3.org/2000/svg">
<path d="M17.033 17.183L11.273 22.013C11.117 22.145 10.88 22.034 10.88 21.83V19.949C10.88 19.88 10.913 19.811 10.967 19.766L14.261 17L10.967 14.234C10.9394 14.2122 10.9172 14.1844 10.9021 14.1527C10.8871 14.1209 10.8795 14.0861 10.88 14.051V12.17C10.88 11.966 11.117 11.855 11.273 11.987L17.033 16.814C17.15 16.91 17.15 17.087 17.033 17.183Z" fill="white"/>
<path d="M23.12 21.83C23.12 21.962 23.018 22.07 22.895 22.07H17.345C17.222 22.07 17.12 21.962 17.12 21.83V20.39C17.12 20.258 17.222 20.15 17.345 20.15H22.895C23.018 20.15 23.12 20.258 23.12 20.39V21.83Z" fill="white"/>
<path d="M18.9277 2.65483L30.6559 11.3837C31.2216 11.8045 31.6393 12.3936 31.8491 13.0665C32.0588 13.7395 32.0497 14.4615 31.8232 15.1289L26.8654 29.7365C26.6417 30.3964 26.2167 30.9696 25.6502 31.3756C25.0836 31.7816 24.4041 31.9999 23.707 32H10.1661C9.46424 32.0003 8.78016 31.7793 8.21128 31.3684C7.6424 30.9575 7.21771 30.3777 6.99767 29.7115L2.1683 15.1023C1.94957 14.4404 1.94391 13.7267 2.1521 13.0615C2.36029 12.3963 2.77187 11.813 3.32895 11.3937L14.9321 2.66484C15.509 2.23325 16.2102 2 16.9307 2C17.6513 2 18.3525 2.23325 18.9293 2.66484L18.9277 2.65483Z" stroke="white" stroke-width="4" stroke-linecap="round" stroke-linejoin="round"/>
</svg>
