<svg width="177" height="150" viewBox="0 0 177 150" fill="none" xmlns="http://www.w3.org/2000/svg">
<path d="M14.4293 97.8293C1.11112 97.8293 -3.01441 81.5144 2.16418 70.3037C6.47554 60.9692 19.0751 54.5364 30.2128 57.916C26.5829 39.3868 49.8246 29.3997 63.787 40.96C66.6364 31.6023 81.7882 16.1263 106.752 19.6224C132.038 23.1651 137.947 44.6775 137.947 52.2523C149.382 47.4278 166.331 52.2989 173.244 64.2555C179.698 75.4196 178.026 94.0886 166.739 97.8177H14.4293V97.8293Z" fill="#9191EC"/>
<path d="M43.1404 11.2114C76.1934 11.2114 78.53 26.2629 78.53 60.7001H63.9331C63.9331 40.3638 68.068 18.2988 43.6261 20.3115L44.1774 31.7205C33.3085 25.2752 22.3345 20.7189 15.0229 17.7679C15.0229 17.7679 28.2153 8.68013 42.6284 1L43.1404 11.2114Z" fill="#303056" stroke="#303056" stroke-width="0.75" stroke-linecap="round" stroke-linejoin="round"/>
<path d="M40.5149 11.2114C73.5679 11.2114 75.9045 26.2629 75.9045 60.7001H61.3076C61.3076 40.3638 65.4425 18.2988 41.0006 20.3115L41.5519 31.7205C30.683 25.2752 19.709 20.7189 12.3975 17.7679C12.3975 17.7679 25.5898 8.68013 40.0029 1L40.5149 11.2114Z" fill="white" stroke="#303056" stroke-width="0.75" stroke-linecap="round" stroke-linejoin="round"/>
<path d="M102.787 119.598L116.613 119.598L115.412 71.9701L126.364 71.9701C123.167 63.2649 116.105 52.8467 109.304 46.4489C102.998 53.6041 97.5591 62.0996 92.9257 71.8186L104.187 71.8186L102.787 119.598Z" fill="#303056" stroke="#303056" stroke-width="0.75" stroke-linecap="round" stroke-linejoin="round"/>
<path d="M100.31 119.598L114.136 119.598L112.934 71.9701L123.886 71.9701C120.69 63.2649 113.628 52.8467 106.826 46.4489C100.52 53.6041 95.0815 62.0996 90.448 71.8186L101.71 71.8186L100.31 119.598Z" fill="white" stroke="#303056" stroke-width="0.75" stroke-linecap="round" stroke-linejoin="round"/>
<path d="M78.3898 72.0867L63.8522 72.0867L65.1157 122.166L53.6003 122.166C56.9612 131.319 64.3863 142.273 71.5378 149C78.1683 141.477 83.8869 132.544 88.7588 122.325L76.9177 122.325L78.3898 72.0867Z" fill="#303056" stroke="#303056" stroke-width="0.75" stroke-linecap="round" stroke-linejoin="round"/>
<path d="M75.5926 72.0867L61.0551 72.0867L62.3186 122.166L50.8032 122.166C54.164 131.319 61.5891 142.273 68.7407 149C75.3712 141.477 81.0898 132.544 85.9617 122.325L74.1206 122.325L75.5926 72.0867Z" fill="white" stroke="#303056" stroke-width="0.75" stroke-linecap="round" stroke-linejoin="round"/>
</svg>
