<svg width="24" height="25" viewBox="0 0 24 25" fill="none" xmlns="http://www.w3.org/2000/svg">
<path d="M20.97 8.22373C21.0627 8.13121 21.1363 8.02133 21.1864 7.90035C21.2366 7.77938 21.2624 7.6497 21.2624 7.51873C21.2624 7.38776 21.2366 7.25808 21.1864 7.1371C21.1363 7.01613 21.0627 6.90624 20.97 6.81373L18.14 3.98373C18.0475 3.89102 17.9376 3.81748 17.8166 3.7673C17.6957 3.71711 17.566 3.69128 17.435 3.69128C17.304 3.69128 17.1743 3.71711 17.0534 3.7673C16.9324 3.81748 16.8225 3.89102 16.73 3.98373L12.24 8.47373L8.35 4.58373C7.57 3.80373 6.3 3.80373 5.52 4.58373L3.62 6.48373C2.84 7.26373 2.84 8.53373 3.62 9.31373L7.51 13.2037L3 17.7137V21.9537H7.24L11.76 17.4337L15.65 21.3237C16.6 22.2737 17.88 21.9237 18.48 21.3237L20.38 19.4237C21.16 18.6437 21.16 17.3737 20.38 16.5937L16.49 12.7037L20.97 8.22373ZM5.04 7.89373L6.93 5.99373L8.2 7.26373L7.02 8.45373L8.43 9.86373L9.62 8.67373L10.82 9.87373L8.92 11.7737L5.04 7.89373ZM16.27 15.3337L15.08 16.5237L16.49 17.9337L17.68 16.7437L18.95 18.0137L17.05 19.9137L13.16 16.0237L15.06 14.1237L16.27 15.3337ZM6.41 19.9537H5V18.5437L14.61 8.93373L15.91 10.2337L16.02 10.3437L6.41 19.9537ZM16.02 7.51373L17.43 6.10373L18.84 7.51373L17.43 8.92373L16.02 7.51373Z" fill="#5454D4"/>
</svg>
