<svg width="106" height="134" viewBox="0 0 106 134" fill="none" xmlns="http://www.w3.org/2000/svg">
<path d="M38.3924 107.506C36.3797 95.8505 28.2591 88.7679 20.5262 82.0234C19.8063 81.3955 19.0898 80.7706 18.3819 80.1452C9.96766 72.7115 2.5 65.0706 2.5 51.4257C2.5 21.6827 28.0743 1.49998 54.543 1.5C80.9014 1.50002 104.324 22.8505 104.324 51.4257C104.324 64.524 96.8135 71.4587 88.2947 78.7064C87.9409 79.0075 87.5852 79.309 87.2283 79.6117C79.0703 86.5295 70.2727 93.9896 68.3447 107.541C67.864 110.919 66.8728 114.106 64.9252 116.629C59.1028 124.172 47.7207 124.172 41.8983 116.629C39.9515 114.107 38.9806 110.911 38.3924 107.506Z" fill="#303056" stroke="#303056" stroke-width="3" stroke-linejoin="round"/>
<path d="M20.2532 55.9501H33.1592C37.1079 55.9501 40.7781 57.9838 42.8716 61.3319L43.5093 62.3517C47.9058 69.3831 58.2683 69.0091 62.1465 61.679V61.679C64.0112 58.1546 67.6716 55.9501 71.6589 55.9501H84.4308" stroke="white" stroke-width="3" stroke-linecap="round"/>
<path d="M54.4814 74.1452C54.4814 75.2618 53.5236 76.1669 52.3421 76.1669C51.1607 76.1669 50.2029 75.2618 50.2029 74.1452C50.2029 73.0287 51.1607 72.1235 52.3421 72.1235C53.5236 72.1235 54.4814 73.0287 54.4814 74.1452Z" fill="white"/>
<path d="M54.4814 74.1452C54.4814 75.2618 53.5236 76.1669 52.3421 76.1669C51.1607 76.1669 50.2029 75.2618 50.2029 74.1452C50.2029 73.0287 51.1607 72.1235 52.3421 72.1235C53.5236 72.1235 54.4814 73.0287 54.4814 74.1452Z" fill="white"/>
<path d="M38.9778 107.725H67.8031L67.5434 109.306C66.3621 116.494 60.0581 121.708 52.7763 121.52C45.9222 121.137 40.2685 116.015 39.2123 109.232L38.9778 107.725Z" fill="#303056"/>
<path d="M52.342 82.2319V101.157" stroke="white" stroke-width="3" stroke-linecap="round"/>
<path d="M37.3924 107.506C35.3797 95.8505 27.2592 88.7679 19.5262 82.0234C18.8063 81.3955 18.0898 80.7706 17.3819 80.1452C8.96766 72.7115 1.5 65.0706 1.5 51.4257C1.5 21.6827 27.0743 1.49998 53.543 1.5C79.9014 1.50002 103.324 22.8505 103.324 51.4257C103.324 64.524 95.8135 71.4587 87.2947 78.7064C86.9409 79.0075 86.5852 79.309 86.2283 79.6117C78.0703 86.5295 69.2727 93.9896 67.3447 107.541C66.864 110.919 65.8728 114.106 63.9252 116.629C58.1028 124.172 46.7207 124.172 40.8983 116.629C38.9515 114.107 37.9806 110.911 37.3924 107.506Z" fill="#8D8DD6" stroke="#303056" stroke-width="3" stroke-linejoin="round"/>
<path d="M19.2534 55.9501H32.1594C36.1081 55.9501 39.7784 57.9838 41.8718 61.3319L42.5095 62.3517C46.9061 69.3831 57.2685 69.0091 61.1467 61.679V61.679C63.0114 58.1546 66.6719 55.9501 70.6591 55.9501H83.4311" stroke="white" stroke-width="3" stroke-linecap="round"/>
<path d="M53.4814 74.1452C53.4814 75.2618 52.5236 76.1669 51.3421 76.1669C50.1607 76.1669 49.2029 75.2618 49.2029 74.1452C49.2029 73.0287 50.1607 72.1235 51.3421 72.1235C52.5236 72.1235 53.4814 73.0287 53.4814 74.1452Z" fill="white"/>
<path d="M53.4814 74.1452C53.4814 75.2618 52.5236 76.1669 51.3421 76.1669C50.1607 76.1669 49.2029 75.2618 49.2029 74.1452C49.2029 73.0287 50.1607 72.1235 51.3421 72.1235C52.5236 72.1235 53.4814 73.0287 53.4814 74.1452Z" fill="white"/>
<path d="M39 108H66L65.6529 110.235C64.6086 116.96 58.7278 121.861 51.9247 121.674C45.5122 121.295 40.2459 116.468 39.3109 110.113L39 108Z" fill="#8D8DD6"/>
<path d="M51.3423 82.2319V101.157" stroke="white" stroke-width="3" stroke-linecap="round"/>
</svg>
