<svg width="144" height="127" viewBox="0 0 144 127" fill="none" xmlns="http://www.w3.org/2000/svg">
<path fill-rule="evenodd" clip-rule="evenodd" d="M74.4998 127C74.323 126.872 18.3123 86.4526 8.11533 56.5C-2.09773 26.5 13.9514 1 39.484 1C64.9481 1 74.4492 32.331 74.5 32.4993C74.5509 32.331 84.0519 1 109.516 1C135.049 1 151.098 26.5 140.885 56.5C130.688 86.4526 74.6771 126.872 74.5002 127V127C74.5002 127 74.5002 127 74.5 127C74.4999 127 74.4998 127 74.4998 127V127Z" fill="#303056"/>
<path fill-rule="evenodd" clip-rule="evenodd" d="M69.4998 126C69.323 125.872 13.3123 85.4526 3.11532 55.5C-7.09774 25.5 8.95136 0 34.484 0C59.9481 0 69.4492 31.331 69.5 31.4993C69.5509 31.331 79.0519 0 104.516 0C130.049 0 146.098 25.5 135.885 55.5C125.688 85.4526 69.6771 125.872 69.5002 126V126C69.5002 126 69.5002 126 69.5 126C69.4999 126 69.4998 126 69.4998 126V126Z" fill="#8D8DD6"/>
</svg>
