<svg width="102" height="116" viewBox="0 0 102 116" fill="none" xmlns="http://www.w3.org/2000/svg">
<path d="M52.5319 1C52.5319 1 52.7196 1 52.8031 1C52.8865 1 52.9909 1 53.0743 1H52.5319Z" fill="#303056" stroke="#303056" stroke-width="0.75" stroke-miterlimit="10"/>
<path d="M52.8039 1C30.8761 1.13149 14.1642 16.2902 14.1642 34.0035V51.9985H90.5673V34.0035C90.5673 16.3089 74.2309 1.13149 52.8039 1ZM78.6749 49.8008H26.4112V35.9006C26.4112 23.8413 37.7611 13.5101 52.6787 13.3411C52.6787 13.3411 52.8039 13.3411 52.8665 13.3411C52.929 13.3411 52.9916 13.3411 53.0542 13.3411C67.6171 13.5289 78.6958 23.8601 78.6958 35.9194V49.8196L78.6749 49.8008Z" fill="#303056" stroke="#303056" stroke-width="0.75" stroke-miterlimit="10"/>
<path d="M81.4717 47.9224H24.8057C14.0204 47.9224 5.27722 55.794 5.27722 65.5042V97.4182C5.27722 107.128 14.0204 115 24.8057 115H81.4717C92.2569 115 101 107.128 101 97.4182V65.5042C101 55.794 92.2569 47.9224 81.4717 47.9224Z" fill="#303056" stroke="#303056" stroke-width="0.75" stroke-miterlimit="10"/>
<path d="M26.3912 81.4707L33.6101 73.9571C39.7858 77.0753 45.3773 80.8696 49.9464 85.8662C56.8106 75.2156 64.9475 66.3684 74.1901 59.0802L85.2062 66.0303C73.9189 71.5903 57.8121 88.4396 50.8436 98.2636C42.2686 90.6749 34.0274 84.6452 26.4121 81.4707H26.3912Z" fill="#8D8DD6"/>
<path d="M48.2572 1C48.2572 1 48.445 1 48.5284 1C48.6119 1 48.7162 1 48.7997 1H48.2572Z" fill="#FBF9ED" stroke="#303056" stroke-width="0.75" stroke-miterlimit="10"/>
<path d="M48.5067 1C26.5789 1.13149 9.86707 16.2902 9.86707 34.0035V51.9985H86.2701V34.0035C86.2701 16.3089 69.9338 1.13149 48.5067 1ZM74.3778 49.8008H22.1141V35.9006C22.1141 23.8413 33.464 13.5101 48.3816 13.3411C48.3816 13.3411 48.5067 13.3411 48.5693 13.3411C48.6319 13.3411 48.6945 13.3411 48.7571 13.3411C63.32 13.5289 74.3987 23.8601 74.3987 35.9194V49.8196L74.3778 49.8008Z" fill="#FBF9ED" stroke="#303056" stroke-width="0.75" stroke-miterlimit="10"/>
<path d="M77.1944 47.9224H20.5285C9.74319 47.9224 1 55.794 1 65.5042V97.4182C1 107.128 9.74319 115 20.5285 115H77.1944C87.9797 115 96.7229 107.128 96.7229 97.4182V65.5042C96.7229 55.794 87.9797 47.9224 77.1944 47.9224Z" fill="#8D8DD6" stroke="#303056" stroke-width="0.75" stroke-miterlimit="10"/>
<path d="M22.1141 83.0485L29.333 75.5349C35.5087 78.653 41.1001 82.4474 45.6693 87.4439C52.5335 76.7934 60.6704 67.9461 69.913 60.658L80.9291 67.608C69.6418 73.1681 53.5349 90.0173 46.5665 99.8413C37.9914 92.2526 29.7503 86.223 22.135 83.0485H22.1141Z" fill="#303056"/>
</svg>
