<svg width="32" height="32" viewBox="0 0 32 32" fill="none" xmlns="http://www.w3.org/2000/svg">
<path fill-rule="evenodd" clip-rule="evenodd" d="M11.1953 4H20.8047C22.2741 3.99999 23.4592 3.99998 24.4184 4.07963C25.4062 4.16166 26.2731 4.33501 27.0731 4.75058C28.2908 5.38308 29.2836 6.37588 29.9161 7.5935C30.3316 8.39351 30.505 9.26046 30.587 10.2482C30.6667 11.2074 30.6667 12.3926 30.6666 13.862V18.138C30.6667 19.6074 30.6667 20.7926 30.587 21.7518C30.505 22.7395 30.3316 23.6065 29.9161 24.4065C29.2836 25.6241 28.2908 26.6169 27.0731 27.2494C26.2731 27.665 25.4062 27.8383 24.4184 27.9204C23.4592 28 22.2741 28 20.8047 28H11.1953C9.7259 28 8.54073 28 7.58153 27.9204C6.59378 27.8383 5.72682 27.665 4.92682 27.2494C3.7092 26.6169 2.71639 25.6241 2.08389 24.4065C1.66832 23.6065 1.49497 22.7395 1.41295 21.7518C1.33329 20.7926 1.3333 19.6074 1.33331 18.1381V13.8619C1.3333 12.3926 1.33329 11.2074 1.41295 10.2482C1.49497 9.26046 1.66832 8.39351 2.08389 7.5935C2.71639 6.37588 3.7092 5.38308 4.92682 4.75058C5.72682 4.33501 6.59378 4.16166 7.58153 4.07963C8.54072 3.99998 9.72588 3.99999 11.1953 4ZM7.00363 6.84067C8.13515 7.10615 9.18555 7.6688 10.0402 8.48276L13.9586 12.2146C14.5005 12.7306 14.8499 13.062 15.1364 13.2936C15.41 13.5148 15.5387 13.5707 15.61 13.5925C15.8642 13.6702 16.1358 13.6702 16.3899 13.5925C16.4612 13.5707 16.59 13.5148 16.8636 13.2936C17.1501 13.062 17.4995 12.7306 18.0414 12.2146L21.9598 8.48276C22.8144 7.6688 23.8648 7.10615 24.9963 6.84067C24.7723 6.79764 24.5104 6.76312 24.1977 6.73715C23.3619 6.66774 22.2877 6.66667 20.7466 6.66667H11.2533C9.71229 6.66667 8.63806 6.66774 7.80223 6.73715C7.48953 6.76312 7.22768 6.79764 7.00363 6.84067ZM27.7474 9.33333H26.5C25.4943 9.33333 24.5271 9.7202 23.7988 10.4138L19.8437 14.1806C19.349 14.6518 18.921 15.0594 18.5401 15.3673C18.1369 15.6933 17.7013 15.98 17.1698 16.1426C16.4074 16.3758 15.5926 16.3758 14.8302 16.1426C14.2987 15.98 13.8631 15.6933 13.4599 15.3673C13.0789 15.0594 12.651 14.6518 12.1562 14.1806L8.20113 10.4138C7.47286 9.7202 6.50569 9.33333 5.49998 9.33333H4.25254C4.17143 9.62219 4.11069 9.98456 4.07046 10.4689C4.00105 11.3047 3.99998 12.379 3.99998 13.92V18.08C3.99998 19.621 4.00105 20.6953 4.07046 21.5311C4.13855 22.351 4.26544 22.8213 4.45033 23.1772C4.82983 23.9078 5.42551 24.5035 6.15608 24.883C6.51201 25.0679 6.98235 25.1948 7.80223 25.2629C8.63806 25.3323 9.71229 25.3333 11.2533 25.3333H20.7466C22.2877 25.3333 23.3619 25.3323 24.1977 25.2629C25.0176 25.1948 25.4879 25.0679 25.8439 24.883C26.5745 24.5035 27.1701 23.9078 27.5496 23.1772C27.7345 22.8213 27.8614 22.351 27.9295 21.5311C27.9989 20.6953 28 19.621 28 18.08V13.92C28 12.379 27.9989 11.3047 27.9295 10.4689C27.8893 9.98456 27.8285 9.62219 27.7474 9.33333Z" fill="#303056"/>
</svg>
