<svg width="256" height="256" viewBox="0 0 256 256" fill="none" xmlns="http://www.w3.org/2000/svg">
<path d="M240 120C239.987 107.274 234.925 95.0724 225.927 86.0735C216.928 77.0747 204.726 72.0133 192 72H152.2C149.29 71.83 98.58 68.26 50.29 27.76C47.9581 25.8016 45.1157 24.5492 42.0967 24.1502C39.0777 23.7511 36.0075 24.2219 33.2468 25.5072C30.4861 26.7925 28.1495 28.839 26.5116 31.4062C24.8736 33.9735 24.0023 36.9548 24 40V200C24.0004 203.046 24.8704 206.029 26.5076 208.598C28.1448 211.166 30.4812 213.214 33.2423 214.501C36.0034 215.787 39.0743 216.259 42.0942 215.86C45.1141 215.462 47.9574 214.209 50.29 212.25C88.06 180.57 127.29 171.49 144 168.95V200.67C143.997 203.307 144.645 205.903 145.887 208.229C147.129 210.554 148.927 212.537 151.12 214L162.12 221.33C164.246 222.749 166.681 223.638 169.222 223.923C171.762 224.207 174.334 223.879 176.721 222.965C179.108 222.052 181.242 220.579 182.944 218.671C184.645 216.764 185.864 214.476 186.5 212L198.27 167.64C209.817 166.104 220.414 160.426 228.089 151.664C235.765 142.901 239.998 131.649 240 120ZM40 199.93V40C82.81 75.91 126.63 85 144 87.24V152.72C126.65 155 82.84 164.07 40 199.93ZM171 207.93V208.04L160 200.71V168H181.6L171 207.93ZM192 152H160V88H192C200.487 88 208.626 91.3715 214.627 97.3726C220.629 103.374 224 111.513 224 120C224 128.487 220.629 136.626 214.627 142.627C208.626 148.629 200.487 152 192 152Z" fill="#5454D4"/>
</svg>
