<svg width="32" height="32" viewBox="0 0 32 32" fill="none" xmlns="http://www.w3.org/2000/svg">
<path fill-rule="evenodd" clip-rule="evenodd" d="M11.212 5.2548C10.3164 4.59462 9.71334 4.44558 9.38974 4.50873C8.05474 4.76926 7.26338 5.28896 6.19122 6.3611C4.72773 7.82458 4.01764 8.91733 4.32691 10.5742C4.68298 12.4817 6.42259 15.3931 11.2173 20.1878C16.0116 24.9822 18.9406 26.7401 20.8588 27.1037C21.7478 27.2721 22.4248 27.1404 23.0322 26.8412C23.6817 26.5214 24.307 25.9829 25.0242 25.2344C25.6603 24.5705 26.0463 24.1072 26.3164 23.6514C26.5737 23.2171 26.7562 22.7369 26.8971 22.0158C26.9603 21.6922 26.8113 21.0891 26.1509 20.1933C25.5351 19.358 24.6663 18.5284 23.8631 17.8512C23.3331 17.4043 22.5131 17.3758 21.8507 17.8717L19.8263 19.3872C18.0002 20.7542 15.4486 20.5584 13.8375 18.9473L12.4578 17.5676C10.8468 15.9565 10.6509 13.4049 12.0179 11.5788L13.5334 9.55446C14.0293 8.89205 14.0008 8.07205 13.5538 7.54203C12.8767 6.73901 12.0472 5.87045 11.212 5.2548ZM12.7943 3.1083C13.8735 3.90388 14.8589 4.95305 15.5924 5.82295C16.9295 7.40858 16.8205 9.61324 15.6681 11.1525L14.1527 13.1769C13.5881 13.9311 13.6611 14.9996 14.3435 15.682L15.7231 17.0617C16.4055 17.744 17.474 17.817 18.2282 17.2524L20.2527 15.7369C21.7919 14.5846 23.9965 14.4755 25.5821 15.8125C26.4522 16.5461 27.5016 17.5315 28.2974 18.611C29.0486 19.63 29.8045 21.0412 29.5143 22.527C29.3279 23.4811 29.0543 24.262 28.6106 25.0107C28.1798 25.7379 27.6201 26.3797 26.9497 27.0793C26.1728 27.8901 25.2871 28.7032 24.2105 29.2335C23.0919 29.7844 21.8277 30.0014 20.3622 29.7237C17.5715 29.1948 14.1384 26.8802 9.33165 22.0734C4.52524 17.267 2.2254 13.8486 1.70552 11.0635C1.13883 8.02763 2.71627 6.0648 4.30561 4.47548C5.61839 3.16271 6.86321 2.28482 8.87897 1.89144C10.3645 1.60154 11.7754 2.35724 12.7943 3.1083Z" fill="#0F1729"/>
</svg>
