<svg width="22" height="32" viewBox="0 0 22 32" fill="none" xmlns="http://www.w3.org/2000/svg">
<path d="M20 0H2C0.9 0 0 0.9 0 2V30C0 31.1 0.9 32 2 32H20C21.1 32 22 31.1 22 30V2C22 0.9 21.1 0 20 0ZM11 30.556C10.7911 30.5635 10.5828 30.5288 10.3876 30.454C10.1924 30.3793 10.0143 30.2659 9.86387 30.1208C9.71343 29.9757 9.59378 29.8017 9.51206 29.6093C9.43034 29.4169 9.38822 29.21 9.38822 29.001C9.38822 28.792 9.43034 28.5851 9.51206 28.3927C9.59378 28.2003 9.71343 28.0263 9.86387 27.8812C10.0143 27.7361 10.1924 27.6227 10.3876 27.548C10.5828 27.4732 10.7911 27.4385 11 27.446C11.4028 27.4604 11.7842 27.6306 12.064 27.9206C12.3439 28.2107 12.5002 28.598 12.5002 29.001C12.5002 29.404 12.3439 29.7913 12.064 30.0814C11.7842 30.3714 11.4028 30.5416 11 30.556ZM20 26H2V4H20V26Z" fill="#5454D4"/>
</svg>
