<svg width="102" height="116" viewBox="0 0 102 116" fill="none" xmlns="http://www.w3.org/2000/svg">
<path d="M98.0873 15.91C79.0287 10.81 53.2906 1 53.2906 1H48.7684C41.9703 3.68 22.7434 12.08 8.42469 15.91C8.42469 34.14 3.73424 67.71 6.25758 84.92C8.90956 103.01 40.4661 107.68 48.7684 115.32H53.2906C62.2658 110.22 97.3056 105.06 100.254 84.92C102.778 67.7 98.0873 34.13 98.0873 15.91Z" fill="#303056" stroke="#303056" stroke-width="0.75" stroke-miterlimit="10"/>
<path d="M93.5655 15.91C74.5068 10.81 48.7688 1 48.7688 1C48.7688 1 22.9911 10.81 3.91272 15.91C3.91272 34.14 -0.777719 67.71 1.74562 84.92C4.69446 105.06 39.7837 110.22 48.7688 115.32C57.744 110.22 92.7837 105.06 95.7326 84.92C98.2559 67.7 93.5655 34.13 93.5655 15.91Z" fill="#9191EC" stroke="#303056" stroke-width="0.75" stroke-linecap="round" stroke-linejoin="round"/>
<path d="M85.0249 23.26C69.6078 19.14 48.7878 11.2 48.7878 11.2C48.7878 11.2 27.9381 19.14 12.5012 23.26C12.5012 38 8.71125 65.16 10.7497 79.0799C13.1345 95.3699 41.5147 99.54 48.7878 103.67C56.0511 99.5499 84.3916 95.3799 86.7665 79.0799C88.805 65.16 85.0151 38 85.0151 23.26H85.0249Z" fill="white"/>
<path d="M49.5002 27.24C49.5002 27.24 49.5893 27.24 49.6289 27.24C49.6685 27.24 49.7179 27.24 49.7575 27.24H49.5002Z" fill="#303056" stroke="#303056" stroke-width="0.75" stroke-miterlimit="10"/>
<path d="M49.6293 27.24C39.2292 27.31 31.303 35.38 31.303 44.81V54.39H67.5401V44.81C67.5401 35.39 59.792 27.31 49.6293 27.24ZM61.8997 53.22H37.1116V45.82C37.1116 39.4 42.4947 33.9 49.57 33.81C49.57 33.81 49.6293 33.81 49.659 33.81C49.6887 33.81 49.7184 33.81 49.7481 33.81C56.6551 33.91 61.9096 39.41 61.9096 45.83V53.23L61.8997 53.22Z" fill="#303056" stroke="#303056" stroke-width="0.75" stroke-miterlimit="10"/>
<path d="M63.2261 52.22H36.35C31.2347 52.22 27.0879 56.4106 27.0879 61.58V78.57C27.0879 83.7394 31.2347 87.93 36.35 87.93H63.2261C68.3414 87.93 72.4882 83.7394 72.4882 78.57V61.58C72.4882 56.4106 68.3414 52.22 63.2261 52.22Z" fill="#303056" stroke="#303056" stroke-width="0.75" stroke-miterlimit="10"/>
<path d="M37.1021 70.08L40.5259 66.08C43.4549 67.74 46.1069 69.76 48.274 72.42C51.5296 66.75 55.3888 62.04 59.7725 58.16L64.9973 61.86C59.6439 64.82 52.0046 73.79 48.6995 79.02C44.6325 74.98 40.7238 71.77 37.1119 70.08H37.1021Z" fill="#303056"/>
<path d="M47.4729 27.24C47.4729 27.24 47.562 27.24 47.6015 27.24C47.6411 27.24 47.6906 27.24 47.7302 27.24H47.4729Z" fill="white" stroke="#303056" stroke-width="0.75" stroke-miterlimit="10"/>
<path d="M47.5913 27.24C37.1911 27.31 29.2649 35.38 29.2649 44.81V54.39H65.502V44.81C65.502 35.39 57.7539 27.31 47.5913 27.24ZM59.8616 53.22H35.0735V45.82C35.0735 39.4 40.4566 33.9 47.5319 33.81C47.5319 33.81 47.5913 33.81 47.621 33.81C47.6506 33.81 47.6803 33.81 47.71 33.81C54.617 33.91 59.8715 39.41 59.8715 45.83V53.23L59.8616 53.22Z" fill="white" stroke="#303056" stroke-width="0.75" stroke-miterlimit="10"/>
<path d="M61.1975 52.22H34.3215C29.2061 52.22 25.0593 56.4106 25.0593 61.58V78.57C25.0593 83.7394 29.2061 87.93 34.3215 87.93H61.1975C66.3128 87.93 70.4596 83.7394 70.4596 78.57V61.58C70.4596 56.4106 66.3128 52.22 61.1975 52.22Z" fill="#9191EC" stroke="#303056" stroke-width="0.75" stroke-miterlimit="10"/>
<path d="M35.0735 70.92L38.4973 66.92C41.4264 68.58 44.0783 70.6 46.2454 73.26C49.501 67.59 53.3603 62.88 57.744 59L62.9688 62.7C57.6153 65.66 49.976 74.63 46.6709 79.86C42.6039 75.82 38.6952 72.61 35.0834 70.92H35.0735Z" fill="#303056"/>
</svg>
