<svg width="32" height="30" viewBox="0 0 32 30" fill="none" xmlns="http://www.w3.org/2000/svg">
<path d="M7.70282 12.3715L13.5085 3.09147C13.7335 2.72467 14.0497 2.42241 14.4262 2.21412C14.8028 2.00582 15.2268 1.8986 15.6571 1.9029C15.996 1.89066 16.3339 1.94649 16.6508 2.06707C16.9678 2.18766 17.2573 2.37055 17.5024 2.60494C17.7474 2.83934 17.943 3.12048 18.0775 3.43174C18.2121 3.74301 18.2828 4.07809 18.2857 4.41718V11.0686H28.32C28.6907 11.0806 29.0548 11.171 29.3881 11.3338C29.7215 11.4966 30.0166 11.728 30.2541 12.013C30.4916 12.298 30.6661 12.63 30.766 12.9873C30.866 13.3445 30.8893 13.7189 30.8343 14.0858L29.0057 25.88C28.9277 26.5104 28.6222 27.0905 28.1465 27.5114C27.6709 27.9323 27.0579 28.165 26.4228 28.1658H11.4285C10.7148 28.1685 10.0102 28.0042 9.37139 27.6858L7.72568 26.8629M7.70282 12.3715V26.7943H2.28568C1.98257 26.7943 1.69188 26.6739 1.47756 26.4596C1.26323 26.2453 1.14282 25.9546 1.14282 25.6515V13.5143C1.14282 13.2112 1.26323 12.9205 1.47756 12.7062C1.69188 12.4919 1.98257 12.3715 2.28568 12.3715H7.70282Z" stroke="#5454D4" stroke-width="2" stroke-linecap="round" stroke-linejoin="round"/>
</svg>
