<svg width="106" height="114" viewBox="0 0 106 114" fill="none" xmlns="http://www.w3.org/2000/svg">
<path d="M59.3204 3.50525L71.0396 31.0131C71.8478 32.8826 73.3488 34.1512 75.1385 34.4183L101.348 38.8249C105.793 39.5593 107.583 45.9021 104.35 49.5075L85.3566 70.8728C84.0866 72.3417 83.5093 74.4114 83.7979 76.4144L88.3009 106.66C89.0514 111.801 84.433 115.673 80.4496 113.27L57.0112 98.9816C55.4525 98.0469 53.5475 98.0469 51.9888 98.9816L28.5504 113.27C24.5671 115.673 19.9487 111.801 20.6991 106.66L25.2021 76.4144C25.4907 74.4114 24.9134 72.2749 23.6434 70.8728L4.65024 49.5075C1.41736 45.9021 3.20699 39.5593 7.6522 38.8249L33.8616 34.4183C35.6512 34.1512 37.1522 32.8158 37.9604 31.0131L49.6796 3.50525C51.6424 -1.16842 57.4154 -1.16842 59.3782 3.50525H59.3204Z" fill="#303056"/>
<path d="M56.3204 3.50525L68.0396 31.0131C68.8478 32.8826 70.3488 34.1512 72.1385 34.4183L98.3478 38.8249C102.793 39.5593 104.583 45.9021 101.35 49.5075L82.3566 70.8728C81.0866 72.3417 80.5093 74.4114 80.7979 76.4144L85.3009 106.66C86.0514 111.801 81.433 115.673 77.4496 113.27L54.0112 98.9816C52.4525 98.0469 50.5475 98.0469 48.9888 98.9816L25.5504 113.27C21.5671 115.673 16.9487 111.801 17.6991 106.66L22.2021 76.4144C22.4907 74.4114 21.9134 72.2749 20.6434 70.8728L1.65024 49.5075C-1.58264 45.9021 0.206994 39.5593 4.6522 38.8249L30.8616 34.4183C32.6512 34.1512 34.1522 32.8158 34.9604 31.0131L46.6796 3.50525C48.6424 -1.16842 54.4154 -1.16842 56.3782 3.50525H56.3204Z" fill="#9191EC"/>
</svg>
